<svg xmlns="http://www.w3.org/2000/svg" viewBox="0 0 496.4 125.6"><defs><style>.e0acab6d-f10d-4523-b13c-a9b2a185be41{fill:#fff;}.aa9ed9e8-4ba8-4bbc-98e3-0f59001b234f{fill:#e01e5a;}.a25396ce-8043-43a1-9ddb-5d0c21859a7e{fill:#36c5f0;}.beb1147b-378f-4bed-80c8-5c4c7390b2bb{fill:#2eb67d;}.f62fbbc9-7211-47a1-a774-edd5adaf5b3f{fill:#ecb22e;}</style></defs><g id="f3e55daf-4a7e-4290-8520-901fa4a9bee0" data-name="Capa 2"><g id="e49638f4-a016-47fe-9b54-4e5f77c5dad1" data-name="Layer 1"><path class="e0acab6d-f10d-4523-b13c-a9b2a185be41" d="M158.8,98.9,165,84.5c6.7,5,15.6,7.6,24.4,7.6,6.5,0,10.6-2.5,10.6-6.3-.1-10.6-38.9-2.3-39.2-28.9C160.7,43.4,172.7,33,189.7,33c10.1,0,20.2,2.5,27.4,8.2l-5.8,14.7c-6.6-4.2-14.8-7.2-22.6-7.2-5.3,0-8.8,2.5-8.8,5.7.1,10.4,39.2,4.7,39.6,30.1,0,13.8-11.7,23.5-28.5,23.5-12.3,0-23.6-2.9-32.2-9.1"/><path class="e0acab6d-f10d-4523-b13c-a9b2a185be41" d="M396.7,79.3a17.9,17.9,0,1,1,0-17.6l17.1-9.5a37.5,37.5,0,1,0,0,36.6Z"/><path class="e0acab6d-f10d-4523-b13c-a9b2a185be41" d="M228.1,1.9h21.4V106.6H228.1Z"/><path class="e0acab6d-f10d-4523-b13c-a9b2a185be41" d="M422.2,1.9V106.6h21.4V75.2L469,106.6h27.4L464.1,69.3,494,34.5H467.8L443.6,63.4V1.9Z"/><path class="e0acab6d-f10d-4523-b13c-a9b2a185be41" d="M313.1,79.5c-3.1,5.1-9.5,8.9-16.7,8.9a17.9,17.9,0,1,1,0-35.8,19.74,19.74,0,0,1,16.7,9.2Zm0-45V43c-3.5-5.9-12.2-10-21.3-10-18.8,0-33.6,16.6-33.6,37.4S273,108,291.8,108c9.1,0,17.8-4.1,21.3-10v8.5h21.4v-72Z"/><path class="aa9ed9e8-4ba8-4bbc-98e3-0f59001b234f" d="M26.5,79.4A13.2,13.2,0,1,1,13.3,66.2H26.5Z"/><path class="aa9ed9e8-4ba8-4bbc-98e3-0f59001b234f" d="M33.1,79.4a13.2,13.2,0,0,1,26.4,0v33a13.2,13.2,0,0,1-26.4,0Z"/><path class="a25396ce-8043-43a1-9ddb-5d0c21859a7e" d="M46.3,26.4A13.2,13.2,0,1,1,59.5,13.2V26.4Z"/><path class="a25396ce-8043-43a1-9ddb-5d0c21859a7e" d="M46.3,33.1a13.2,13.2,0,1,1,0,26.4H13.2a13.2,13.2,0,0,1,0-26.4Z"/><path class="beb1147b-378f-4bed-80c8-5c4c7390b2bb" d="M99.2,46.3a13.2,13.2,0,1,1,13.2,13.2H99.2Z"/><path class="beb1147b-378f-4bed-80c8-5c4c7390b2bb" d="M92.6,46.3a13.2,13.2,0,1,1-26.4,0V13.2a13.2,13.2,0,1,1,26.4,0Z"/><path class="f62fbbc9-7211-47a1-a774-edd5adaf5b3f" d="M79.4,99.2a13.2,13.2,0,1,1-13.2,13.2V99.2Z"/><path class="f62fbbc9-7211-47a1-a774-edd5adaf5b3f" d="M79.4,92.6a13.2,13.2,0,0,1,0-26.4h33.1a13.2,13.2,0,1,1,0,26.4Z"/></g></g></svg>